<svg
        xmlns="http://www.w3.org/2000/svg"
        xmlns:xlink="http://www.w3.org/1999/xlink"
        width="55px"
        height="56px"
>
    <path
            fill-rule="evenodd"
            stroke="rgb(226, 189, 158)"
            stroke-width="4px"
            stroke-linecap="butt"
            stroke-linejoin="miter"
            fill="rgb(255, 255, 255)"
            d="M26.505,2.187 C40.036,2.187 51.005,13.156 51.005,26.687 C51.005,40.218 40.036,51.187 26.505,51.187 C12.974,51.187 2.005,40.218 2.005,26.687 C2.005,13.156 12.974,2.187 26.505,2.187 Z"
    />
    <path
            fill-rule="evenodd"
            fill="rgb(226, 189, 158)"
            d="M40.376,22.699 C41.231,23.577 41.231,24.999 40.376,25.876 L29.359,37.170 C28.503,38.047 27.116,38.047 26.260,37.170 C25.405,36.293 25.405,34.871 26.260,33.993 L37.277,22.699 C38.133,21.822 39.520,21.822 40.376,22.699 Z"
    />
    <path
            fill-rule="evenodd"
            fill="rgb(226, 189, 158)"
            d="M14.661,22.796 C15.520,21.916 16.913,21.916 17.772,22.796 L28.833,34.135 C29.692,35.016 29.692,36.444 28.833,37.324 C27.974,38.205 26.581,38.205 25.722,37.324 L14.661,25.985 C13.802,25.105 13.802,23.677 14.661,22.796 Z"
    />
    <path
            fill-rule="evenodd"
            fill="rgb(226, 189, 158)"
            d="M27.672,8.004 C28.894,7.997 29.879,8.993 29.871,10.231 L29.771,26.165 C29.763,27.402 28.766,28.412 27.544,28.420 C26.321,28.428 25.336,27.431 25.343,26.194 L25.444,10.259 C25.452,9.022 26.449,8.012 27.672,8.004 Z"
    />
    <path
            fill-rule="evenodd"
            fill="rgb(202, 4, 44)"
            d="M36.996,41.568 C37.003,42.917 36.026,44.005 34.813,43.995 L19.196,43.885 C17.983,43.876 16.994,42.776 16.986,41.427 C16.978,40.078 17.955,38.991 19.168,38.999 L34.785,39.110 C35.998,39.119 36.988,40.219 36.996,41.568 Z"
    />
</svg>