<svg xmlns="http://www.w3.org/2000/svg" x="0px" y="0px" viewBox="0 0 88.013 90.68" height="90.68" width="88.013" xml:space="preserve">
    <g transform="scale(0.13)">
        <path d="M554.352 306.234H105.73l36.274-255.43h376.098l36.25 255.43zm-2.247 365.282c9.239 10.5 25.196 11.55 35.696 2.379 10.496-9.165 11.609-25.184 2.383-35.684L349.055 361.578c-9.098-10.531-25.192-11.586-35.688-2.41-.98.875-1.953 1.816-2.73 2.793l-240.77 276.25c-9.207 10.5-8.117 26.519 2.414 35.684 10.488 9.171 26.52 8.121 35.684-2.379l222.051-254.797 222.089 254.797zm-98.242-427.215c0 8.437 6.797 15.254 15.196 15.254a15.219 15.219 0 0 0 15.246-15.254V99.848c0-8.399-6.789-15.227-15.246-15.227-8.399 0-15.196 6.828-15.196 15.227V244.3zm-92.703 0c0 8.437 6.785 15.254 15.184 15.254a15.218 15.218 0 0 0 15.254-15.254V99.848c0-8.399-6.785-15.227-15.254-15.227-8.399 0-15.184 6.828-15.184 15.227V244.3zm-92.711 0c0 8.437 6.856 15.254 15.25 15.254 8.395 0 15.254-6.817 15.254-15.254V99.848c0-8.399-6.859-15.227-15.254-15.227-8.394 0-15.25 6.828-15.25 15.227V244.3zm-92.644 0c0 8.437 6.859 15.254 15.254 15.254 8.394 0 15.183-6.817 15.183-15.254V99.848c0-8.399-6.789-15.227-15.183-15.227-8.395 0-15.254 6.828-15.254 15.227V244.3zM25.402 438.27h174.895c13.992 0 25.324-11.372 25.324-25.368 0-14.027-11.332-25.398-25.324-25.398H50.766v-50.801h558.586v50.801H459.754c-13.996 0-25.332 11.371-25.332 25.398 0 13.996 11.336 25.368 25.332 25.368h174.93c13.996 0 25.461-11.372 25.461-25.368V311.301c0-13.992-11.465-25.399-25.461-25.399h-32.051L565.125 21.828A25.293 25.293 0 0 0 540.074.063v-.06H120.035c-13.336 0-24.281 10.274-25.297 23.36L57.445 285.902H25.402c-14.03 0-25.398 11.407-25.398 25.399v101.601c0 13.996 11.367 25.368 25.398 25.368" fill="#FFFFFF"/>
    </g>
</svg>