<svg xmlns="http://www.w3.org/2000/svg" x="0px" y="0px" viewBox="0 0 130.58667 124.37333" height="124.37333" width="130.58667" xml:space="preserve">
    <g transform="scale(0.13)">
        <path d="m 904.109,357.055 c 0,-13.801 -5.925,-26.672 -15.273,-36.028 -17.434,-17.441 -41.941,-17.441 -64.363,-12.039 -8.625,2.078 -16.621,5.078 -23.782,8.614 v 0.105 c -7.793,3.848 -14.953,8.098 -21.074,12.461 v 0.109 c -6.23,4.461 -12.351,9.649 -17.859,15.254 l -2.285,2.078 c -24.914,23.575 -55.239,32.598 -84.407,32.598 -37.168,0 -73.718,-15.781 -93.132,-33.75 l -1.965,-1.855 c -12.989,-11.739 -27.012,-21.493 -42.071,-28.25 -14.726,-6.75 -30.82,-10.579 -48.277,-10.579 -32.074,0 -59.691,24.192 -84.508,45.891 -57.621,50.352 -106.312,92.918 -187.601,0.203 -13.289,-15.164 -26.903,-26.992 -41.742,-34.773 -13.395,-7.063 -29.907,-11.739 -45.883,-11.438 l -3.02,0.117 h -0.312 -0.414 -0.301 c -13.094,1.036 -25.652,5.606 -35.3087,15.254 -9.3516,9.356 -15.2657,22.227 -15.2657,36.028 v 62.195 c 0,27.715 23.4649,51.289 51.2894,51.289 242.023,0 484.246,0 726.265,0 27.825,0 51.289,-23.574 51.289,-51.289 z M 815.848,75.375 H 163.523 V 233.82 c 16.297,3.321 32.176,9.035 46.93,16.719 23.883,12.453 44.535,30.109 63.637,51.906 31.773,36.239 54.621,16.297 81.609,-7.375 34.992,-30.515 73.817,-64.57 133.922,-64.57 28.563,0 54.93,6.223 79.234,17.227 22.317,10.07 42.774,24.406 61.77,41.523 l 2.281,1.984 c 7.785,7.168 24.192,13.594 42.16,13.594 11.524,0 23.157,-3.117 32.082,-11.308 l 1.344,-1.348 c 16.821,-16.828 37.59,-31.359 58.977,-41.848 h 0.097 c 12.051,-5.918 25.125,-10.898 39.153,-14.324 l 9.129,-1.973 z M 165.121,612.512 H 278.113 V 545.918 H 165.121 Z m 38.805,98.508 -0.086,0.082 h 0.086 c -5.946,10.449 -9.274,22.171 -9.274,34.605 0,22.168 10.77,41.809 26.922,56.297 16.231,-14.406 27.008,-34.129 27.008,-56.297 0,-12.434 -3.336,-24.156 -9.269,-34.605 l -0.235,-0.473 v 19.082 c 0,9.578 -7.683,17.262 -17.258,17.262 -9.504,0 -17.183,-7.684 -17.183,-17.262 V 709.836 Z M 415.609,633.234 H 563.758 V 545.918 H 415.609 Z m 50.871,129.153 -0.105,0.105 h 0.105 c -7.792,13.703 -12.152,29.078 -12.152,45.371 0,29.075 14.121,54.821 35.293,73.825 21.293,-18.899 35.414,-44.75 35.414,-73.825 0,-16.293 -4.363,-31.668 -12.144,-45.371 l -0.305,-0.613 v 25.012 c 0,12.566 -10.078,22.636 -22.637,22.636 -12.461,0 -22.527,-10.07 -22.527,-22.636 V 760.832 Z M 699.961,612.512 H 812.957 V 545.918 H 699.961 Z m 38.809,98.508 -0.09,0.082 h 0.09 c -5.95,10.449 -9.282,22.171 -9.282,34.605 0,22.168 10.774,41.809 26.926,56.297 16.231,-14.406 27.012,-34.129 27.012,-56.297 0,-12.434 -3.34,-24.156 -9.27,-34.605 l -0.23,-0.473 v 19.082 c 0,9.578 -7.696,17.262 -17.27,17.262 -9.5,0 -17.176,-7.684 -17.176,-17.262 V 709.836 Z M 852.82,545.918 h -5.34 v 83.777 c 0,9.586 -7.753,17.262 -17.257,17.262 h -56.297 v 12.199 c 26.289,21.137 43.941,52.102 43.941,86.551 0,37.606 -20.906,70.707 -51.07,91.856 l -0.246,0.156 -0.235,0.16 c -5.703,4.031 -13.625,4.266 -19.636,0.078 -30.492,-21.148 -51.633,-54.477 -51.633,-92.25 0,-34.687 17.82,-65.734 44.433,-86.867 v -11.883 h -56.308 -0.469 c -9.512,0 -17.195,-7.676 -17.195,-17.262 v -83.777 h -56.477 v 109.32 0.528 c 0,12.562 -10.176,22.629 -22.636,22.629 h -73.809 v 15.992 c 34.465,27.715 57.617,68.316 57.617,113.476 0,49.313 -27.422,92.711 -66.965,120.442 l -0.32,0.199 -0.313,0.215 c -7.468,5.293 -17.863,5.601 -25.746,0.101 -39.976,-27.722 -67.691,-71.429 -67.691,-120.957 0,-45.476 23.359,-86.175 58.254,-113.89 v -15.578 h -73.828 -0.617 c -12.461,0 -22.543,-10.067 -22.543,-22.629 V 545.918 h -57.793 v 83.379 0.398 c 0,9.586 -7.758,17.262 -17.262,17.262 h -56.301 v 12.199 c 26.289,21.137 43.953,52.102 43.953,86.551 0,37.606 -20.914,70.707 -51.074,91.856 l -0.246,0.156 -0.234,0.16 c -5.704,4.031 -13.625,4.266 -19.641,0.078 -30.496,-21.148 -51.629,-54.477 -51.629,-92.25 0,-34.687 17.816,-65.734 44.43,-86.867 v -11.883 h -56.309 -0.469 c -9.507,0 -17.199,-7.676 -17.199,-17.262 v -83.777 h -4.105 C 57.5117,545.918 0,488.5 0,419.25 V 357.055 C 0,322.387 14.3203,290.609 37.2734,267.766 52.1133,252.914 69.5625,242.855 88.25,236.938 V 38.625 37.6875 c 0,-20.7617 16.82,-37.68359375 37.59,-37.68359375 h 726.66 1.031 c 20.774,0 37.59,16.92189375 37.59,37.68359375 V 236.938 c 18.582,5.71 35.93,15.781 50.977,30.828 22.949,22.843 37.277,54.621 37.277,89.289 v 62.195 c 0,69.043 -57.426,126.668 -126.555,126.668" fill="#FFFFFF"/>
    </g>
</svg>