<svg xmlns="http://www.w3.org/2000/svg" viewBox="0 0 133.56 154.85333" height="154.85333" width="133.56" xml:space="preserve">
    <g transform="scale(0.13)">
        <path d="m 630.688,537.719 -0.118,0.058 c -33.136,-33.203 -79.093,-53.781 -129.738,-53.781 -50.644,0 -96.598,20.578 -129.734,53.781 l -1.305,1.239 c -32.398,32.961 -52.461,78.41 -52.461,128.488 0,50.703 20.563,96.598 53.766,129.801 33.136,33.136 79.09,53.715 129.734,53.715 50.645,0 96.602,-20.579 129.738,-53.715 33.192,-33.203 53.77,-79.098 53.77,-129.801 0,-50.707 -20.52,-96.652 -53.652,-129.727 z m 38.339,-38.328 c 43.067,43.004 69.766,102.586 69.766,168.113 0,65.715 -26.699,125.238 -69.707,168.254 -43.02,43.004 -102.609,69.707 -168.254,69.707 -65.648,0 -125.227,-26.703 -168.25,-69.707 -43.016,-43.016 -69.707,-102.539 -69.707,-168.254 0,-64.707 26.066,-123.672 68.207,-166.555 l 1.5,-1.621 c 43.074,-43.094 102.602,-69.781 168.25,-69.781 65.645,0 125.168,26.687 168.254,69.781 z M 805.004,202.152 c -10.254,0.118 -19.191,-5.5 -23.879,-13.879 l -0.066,0.071 -59.961,-106.3557 -93.157,161.3087 54.961,-12.512 1.309,-0.371 c 20.949,-4.816 42.07,-1.621 59.894,7.684 l 3.692,1.886 c 17.5,10.125 31.641,26.563 38.828,47.2 l 1.055,3.004 21.211,68.515 0.175,0.567 22.821,7.074 95.468,-165.442 z M 586.371,333.195 c -12.324,-3.875 -23.574,-10.429 -33.273,-19.5 l -2.313,-2.312 -49.953,-46.203 -52.332,48.457 0.133,0.058 c -10.695,9.942 -23.27,16.875 -36.899,20.567 l -0.371,0.129 v 0.066 c -13.379,3.555 -27.64,3.809 -41.957,0.625 l -69.707,-15.957 -21.015,68.164 -0.063,0.176 h 0.063 c -4.426,14.14 -11.817,26.457 -21.688,36.258 -9.758,9.828 -22.141,17.199 -36.391,21.586 l -68.082,21.062 15.817,69.719 c 3.187,14.312 2.941,28.562 -0.633,42.008 l -1.238,4.004 c -3.883,12.199 -10.449,23.449 -19.453,33.195 l -2.317,2.32 -46.1365,49.832 0.6289,0.875 47.7576,51.508 0.067,-0.062 c 9.886,10.695 16.824,23.203 20.515,36.828 l 0.114,0.449 0.062,-0.067 c 3.574,13.497 3.82,27.696 0.633,41.95 l -15.879,69.769 68.144,21.016 c 14.25,4.437 26.633,11.816 36.391,21.629 9.817,9.816 17.262,22.136 21.688,36.258 l 0.504,1.82 20.511,66.518 69.707,-15.88 c 14.379,-3.185 28.516,-2.927 41.957,0.57 l 0.184,0.06 v -0.06 c 13.637,3.69 26.266,10.75 37.086,20.76 l 2.305,2.37 49.832,46.08 0.804,-0.62 51.594,-47.77 -0.07,-0.06 c 10.82,-10.07 23.449,-17.07 37.023,-20.7 13.496,-3.557 27.813,-3.881 42.313,-0.56 l 1.32,0.3 68.211,15.51 21.066,-68.081 0.067,-0.195 h -0.067 c 8.758,-28.191 29.949,-49.191 58.094,-57.949 l 68.145,-21.016 -15.821,-69.578 h -0.058 c -3.25,-14.445 -3.008,-28.824 0.617,-42.332 3.574,-13.383 10.574,-25.879 20.703,-36.824 l 48.457,-52.399 -0.625,-0.804 -47.773,-51.524 -0.059,0.059 c -10.07,-10.75 -17.063,-23.379 -20.703,-37 l -0.676,-2.883 c -2.949,-12.754 -2.949,-26.133 0.059,-39.523 l 0.371,-1.297 15.508,-68.223 -68.145,-21.062 c -14.324,-4.387 -26.648,-11.758 -36.453,-21.586 -9.824,-9.801 -17.199,-22.118 -21.641,-36.258 l -0.5,-1.809 -20.566,-66.465 -69.707,15.891 c -14.324,3.184 -28.516,2.93 -41.961,-0.625 z M 280.57,81.9883 220.605,188.344 l -0.066,-0.071 c -4.687,8.379 -13.621,13.997 -23.883,13.879 l -122.3552,-1.25 95.5352,165.442 22.828,-7.074 21.316,-69.082 h 0.055 c 6.766,-22.008 21.512,-39.579 40.016,-50.204 18.578,-10.761 41.074,-14.699 63.41,-9.57 l 56.199,12.883 z M 998.078,186.828 884.777,382.973 c 18.887,7.566 34.016,21.062 43.645,37.625 l -0.117,0.07 0.117,0.129 c 10.633,18.504 14.629,40.945 9.629,63.199 l -15.949,69.961 -0.118,0.891 46.77,50.515 2.312,2.364 c 15.754,16.89 23.625,38.453 23.625,59.777 0,21.316 -7.871,42.894 -23.625,59.836 l -0.058,-0.067 -49.082,53.024 16.125,70.836 c 5,22.199 1.004,44.652 -9.629,63.152 -10.742,18.629 -28.262,33.317 -50.195,40.145 l -69.161,21.316 -21.386,69.144 h -0.059 c -6.75,22.07 -21.437,39.65 -39.824,50.21 l -0.07,-0.07 -0.125,0.07 c -18.567,10.69 -40.95,14.63 -63.204,9.63 l -70.031,-15.88 -0.801,-0.19 -50.593,46.83 -2.305,2.31 c -16.887,15.7 -38.391,23.64 -59.77,23.64 -21.32,0 -42.769,-7.94 -59.71,-23.64 l -51.653,-47.82 -1.562,-1.39 -70.703,16.14 c -22.258,5 -44.641,1.06 -63.219,-9.63 -18.571,-10.76 -33.25,-28.26 -40.071,-50.21 l -21.136,-68.515 -0.242,-0.629 -69.094,-21.316 C 101.563,947.602 83.9922,932.914 73.3008,914.285 62.6094,895.785 58.6133,873.402 63.6719,851.133 L 79.8047,780.363 32.9766,729.656 30.6641,727.34 C 14.9102,710.465 6.97266,688.887 6.97266,667.504 c 0,-21.371 7.93754,-42.949 23.69144,-59.777 l 0.0625,0.07 47.7109,-51.582 1.3672,-1.563 -15.75,-69.14 -0.3203,-1.387 C 58.6133,461.809 62.6094,439.359 73.3008,420.797 82.9297,404.098 98,390.539 116.887,382.973 L 3.59375,186.828 c -7.44141,-12.93 -2.945312,-29.566 10.00005,-37 4.3164,-2.508 9.0664,-3.629 13.6835,-3.578 v -0.051 L 181.086,147.77 256.563,13.8398 c 7.308,-13.011675 23.945,-17.69136 37,-10.39058 4.75,2.62891 8.386,6.5 10.695,11.01168 l 116.48,201.7541 20.45,-18.938 c 16.941,-15.632 38.39,-23.574 59.644,-23.574 21.262,0 42.637,7.871 59.648,23.574 l 20.45,18.938 116.418,-201.7541 c 2.363,-4.51168 5.996,-8.38277 10.742,-11.01168 13.074,-7.30078 29.707,-2.621095 37.019,10.39058 l 75.52,133.9302 153.75,-1.571 v 0.051 c 4.629,-0.051 9.383,1.07 13.699,3.578 12.932,7.434 17.432,24.07 10,37" fill="#FFFFFF"/>
    </g>
</svg>